<svg xmlns="http://www.w3.org/2000/svg" viewBox="0 0 512 640" x="0px" y="0px"><title>yarn-Ball-cushion-needle-sew</title><g><circle cx="32" cy="32" r="16"/><path d="M142.862,256,63.63,176.769A206.868,206.868,0,0,0,50.473,224H88v16H48a16,16,0,0,0,0,32h78.862Z"/><path d="M401.138,288l47.232,47.231A206.868,206.868,0,0,0,461.527,288Z"/><path d="M224,50.473a206.814,206.814,0,0,0-47.232,13.158L224,110.862Z"/><path d="M335.231,63.63A206.868,206.868,0,0,0,288,50.473V97.608H272V48a16,16,0,0,0-32,0v78.862l16,16Z"/><path d="M244.685,154.176,154.177,63.667a24.029,24.029,0,0,0-33.941,0l-5.657,5.657L222.058,176.8Z"/><path d="M63.667,154.178l90.51,90.508L176.8,222.058,80.637,125.893l11.314-11.315,96.167,96.166,22.626-22.626L103.265,80.639l-39.6,39.6A24.029,24.029,0,0,0,63.667,154.178Z"/><path d="M110.862,288H50.473a206.842,206.842,0,0,0,13.158,47.231Z"/><path d="M424,224h37.527a206.868,206.868,0,0,0-13.157-47.231L369.138,256l16,16H464a16,16,0,0,0,0-32H424Z"/><path d="M176.769,448.37A206.868,206.868,0,0,0,224,461.527V416h16v48a16,16,0,0,0,32,0V385.138l-16-16Z"/><path d="M288,461.527a206.814,206.814,0,0,0,47.232-13.158L288,401.138Z"/><circle cx="480" cy="32" r="16"/><path d="M408.735,431.361l22.626-22.626L323.882,301.256l-22.626,22.626,50.911,50.912-11.314,11.314L289.942,335.2l-22.627,22.627,90.508,90.509a24.028,24.028,0,0,0,33.941,0l5.657-5.657-45.255-45.254,11.314-11.315Z"/><path d="M357.824,267.315,335.2,289.942,442.676,397.421l5.657-5.657a24.029,24.029,0,0,0,0-33.942Z"/><path d="M391.764,63.667a24.026,24.026,0,0,0-33.942,0L63.667,357.823a24.028,24.028,0,0,0,0,33.941l5.657,5.657,45.254-45.255,11.315,11.314L80.639,408.735l22.626,22.626,328.1-328.1ZM125.892,340.853,386.107,80.637l11.315,11.314L137.206,352.167Z"/><path d="M448.333,154.178a24.029,24.029,0,0,0,0-33.942l-5.657-5.657-328.1,328.1,5.657,5.657a24.028,24.028,0,0,0,33.942,0L448.333,154.177Z"/><rect x="451.681" y="419.633" width="16.001" height="80.097" transform="translate(-190.406 459.681) rotate(-45)"/><rect x="12.27" y="451.681" width="80.097" height="16.001" transform="translate(-309.72 171.632) rotate(-45)"/><rect x="59.267" y="48.361" width="16.001" height="37.814" transform="translate(-27.863 67.268) rotate(-45)"/><rect x="425.825" y="59.267" width="37.814" height="16.001" transform="translate(82.694 334.175) rotate(-45)"/></g><text x="0" y="527" fill="#000000" font-size="5px" font-weight="bold" font-family="'Helvetica Neue', Helvetica, Arial-Unicode, Arial, Sans-serif">Created by Nhor</text><text x="0" y="532" fill="#000000" font-size="5px" font-weight="bold" font-family="'Helvetica Neue', Helvetica, Arial-Unicode, Arial, Sans-serif">from the Noun Project</text></svg>