<svg xmlns="http://www.w3.org/2000/svg" xmlns:xlink="http://www.w3.org/1999/xlink" version="1.1" x="0px" y="0px" viewBox="0 0 100 125" enable-background="new 0 0 100 100" xml:space="preserve"><path d="M76.614,87.977c0.134,0.306-0.005,0.663-0.312,0.798c-3.255,1.426-6.861,2.298-10.719,2.593  c-0.016,0.001-0.032,0.002-0.047,0.002c-0.314,0-0.579-0.242-0.603-0.559c-0.026-0.334,0.224-0.625,0.557-0.65  c3.722-0.284,7.196-1.124,10.326-2.495C76.125,87.533,76.48,87.672,76.614,87.977z M93.618,56.502  c-0.029-0.333-0.317-0.571-0.656-0.55c-0.333,0.029-0.579,0.323-0.55,0.656c1.067,12.124-3.547,22.865-12.343,28.733  c-0.278,0.185-0.353,0.561-0.168,0.839c0.117,0.175,0.308,0.269,0.504,0.269c0.115,0,0.232-0.033,0.335-0.102  C89.911,80.231,94.725,69.074,93.618,56.502z M40.138,65.238c-0.1-0.222-0.183-0.469-0.252-0.734L40.912,84.3  c4.655,2.42,9.582,4.585,14.476,5.372c1.73,0.282,3.488,0.466,5.228,0.547c0.334,0.015,0.592,0.299,0.576,0.633  c-0.015,0.335-0.307,0.601-0.633,0.576c-1.786-0.083-3.59-0.272-5.365-0.561c-4.861-0.782-9.703-2.856-14.282-5.204  c-0.168,0.827-0.833,1.459-1.652,1.459c-0.969,0-1.745-0.898-1.695-1.967l0.064-1.235c-1.063-0.58-2.109-1.162-3.132-1.732  c-6.426-3.583-11.972-6.677-14.597-4.881c-1.376,0.94-0.884,3.268-0.174,5.151c3.061,1.113,7.191,3.085,10.024,6.27  c1.599,1.796,2.245,3.49,1.817,4.77c-0.25,0.75-0.869,1.275-1.697,1.442C29.673,94.98,29.467,95,29.256,95  c-1.522,0-3.333-1.018-4.875-2.778c-1.734-1.978-4.206-5.442-5.578-8.808c-3.907-1.355-8.258-2.075-11.958-1.993  c-0.349,0.036-0.612-0.256-0.619-0.591c-0.008-0.335,0.257-0.612,0.591-0.619c3.558-0.087,7.67,0.55,11.463,1.754  c-1.042-3.389-0.104-4.945,0.939-5.658c3.239-2.22,8.815,0.888,15.87,4.822c0.855,0.477,1.727,0.962,2.611,1.448l0.871-16.807  c-0.285,0.562-0.714,1.094-1.339,1.605c-0.131,0.107-0.28,0.161-0.445,0.161c-0.22,0-0.47-0.095-0.748-0.285  c-1.436-0.981-5.619-5.929-7.934-12.512c0.173,2.353,0.444,5.101,0.868,7.949c0.713,4.778-1.357,6.49-2.009,6.901  c-0.408,0.257-0.823,0.389-1.185,0.389c-0.241,0-0.459-0.059-0.637-0.178c-1.19-0.802-2.693-8.028-3.4-11.767  c-0.54,3.524-1.457,5.828-2.756,6.826c-0.658,0.506-1.417,0.684-2.189,0.518c-0.517-0.111-0.893-0.557-0.913-1.084  c-0.328-8.593-0.938-24.586,7.182-34.426c8.606-10.427,22.024-15.827,28.602-17.532c0.41-2.348,2.963-7.058,8.024-7.325  c4.396-0.232,8.326,3.164,11.393,9.817c2.517,5.462,3.246,12.956,0.107,16.042c-1.993,1.959-4.466,2.297-5.933,2.297  c-0.206,0-0.377-0.009-0.537-0.018c0.01,1.172-0.079,2.298-0.299,3.343c-1.78,8.467-10.264,18.718-14.502,22.956  c-0.917,0.917-1.833,1.918-2.718,2.885c-2.651,2.898-4.222,4.524-5.417,4.387C41.126,66.642,40.525,66.102,40.138,65.238z   M20.387,84.006c1.161,2.451,2.992,5.237,4.903,7.418c1.761,2.01,3.44,2.515,4.342,2.33c0.408-0.082,0.673-0.297,0.787-0.638  c0.103-0.31,0.296-1.484-1.573-3.582C26.907,87.352,24,85.456,20.387,84.006z M52.997,12.02c1.232-0.261,2.088-0.347,2.42-0.264  c2.966,0.753,8.684,11.452,9.261,20.174c1.048,0.072,3.679,0.027,5.663-1.924c2.389-2.349,2.226-9.069-0.357-14.673  c-1.981-4.299-5.377-9.374-10.229-9.114C55.615,6.438,53.57,10.118,52.997,12.02z M35.931,57.986l-0.5-1.2  c-3.741-9.047-1.005-15.927,2.477-19.069c2.442-2.205,6.011-2.967,8.487-1.813c1.328,0.619,3.529,2.369,3.355,7.13  c-0.189,5.176-4.455,11.258-6.745,14.525l-0.323,0.461c-2.002,2.866-2.026,5.412-1.439,6.721c0.226,0.504,0.513,0.755,0.685,0.775  c0.01,0.001,0.021,0.001,0.031,0.001c0.688,0,2.887-2.404,4.351-4.003c0.894-0.977,1.819-1.988,2.755-2.924  c4.15-4.15,12.452-14.16,14.173-22.349c1.815-8.638-5.546-22.66-8.117-23.312C53.795,12.619,35.065,17.229,24,30.638  c-7.827,9.484-7.228,25.178-6.906,33.609c0.388,0.042,0.777-0.056,1.155-0.347c0.869-0.667,2.383-2.974,2.766-10.929  c0.002-0.038,0.017-0.071,0.025-0.106c-0.447-5.772,0.228-10.856,0.749-12.771c0.088-0.322,0.421-0.511,0.743-0.426  c0.323,0.088,0.513,0.421,0.426,0.743c-0.604,2.223-1.482,9.522-0.152,16.725c1.384,7.492,2.548,11.044,2.998,11.634  c0.144-0.01,0.5-0.123,0.891-0.502c0.496-0.481,1.593-1.969,1.081-5.399c-1.178-7.897-1.191-15.084-1.191-15.194  c-0.198-2.671,0.043-5.452,0.945-8.237c0.103-0.318,0.442-0.495,0.763-0.389c0.318,0.103,0.492,0.444,0.389,0.763  c-4.052,12.501,6.113,25.127,8.012,26.431C38.563,64.527,37.83,62.521,35.931,57.986z M39.801,85.085  c-0.35-0.184-0.697-0.369-1.043-0.555l-0.031,0.665c-0.01,0.222,0.081,0.373,0.141,0.444c0.061,0.071,0.192,0.192,0.394,0.192  c0.202,0,0.333-0.121,0.394-0.192c0.061-0.071,0.161-0.222,0.151-0.444L39.801,85.085z M39.733,83.679l-0.158-3.256  c-0.02-0.626-0.615-0.605-0.626,0l-0.129,2.766C39.123,83.353,39.427,83.516,39.733,83.679z M39.759,62.06  c0.169-1.4,0.734-3.02,1.93-4.732l0.324-0.463c2.22-3.165,6.351-9.056,6.527-13.875c0.112-3.055-0.807-5.126-2.657-5.989  c-2.054-0.957-5.066-0.278-7.164,1.614c-3.188,2.879-5.669,9.243-2.169,17.708l0.498,1.195c0.75,1.79,1.381,3.305,1.711,4.631  l0.502-9.685L39.759,62.06z"/></svg>